<?xml version="1.0" encoding="utf-8"?>
<!-- Generator: Adobe Illustrator 16.0.0, SVG Export Plug-In . SVG Version: 6.00 Build 0)  -->
<!DOCTYPE svg PUBLIC "-//W3C//DTD SVG 1.1//EN" "http://www.w3.org/Graphics/SVG/1.1/DTD/svg11.dtd">
<svg version="1.1" xmlns="http://www.w3.org/2000/svg" xmlns:xlink="http://www.w3.org/1999/xlink" x="0px" y="0px"
	 width="1543.963px" height="121.833px" viewBox="0 0 1543.963 121.833" enable-background="new 0 0 1543.963 121.833"
	 xml:space="preserve">
<g id="fond" display="none">
	<rect display="inline" fill="#EFEFEF" width="1543.414" height="121.666"/>
</g>
<g id="base">
</g>
<g id="lieux">
	<g>
		<g>
			
				<polyline fill="#FB3975" stroke="#E52D64" stroke-width="3.1626" stroke-linecap="round" stroke-linejoin="round" stroke-miterlimit="10" points="
				134.972,66.876 131.07,49.164 121.188,49.164 121.188,49.164 115.587,89.356 174.61,89.356 169.865,56.162 154.926,66.717 
				152.554,56.162 134.972,66.876 			"/>
			
				<path fill="#FB3975" stroke="#E52D64" stroke-width="3.1626" stroke-linecap="round" stroke-linejoin="round" stroke-miterlimit="10" d="
				M124.741,40.256c0.416,0,0.823-0.093,1.195-0.273c0.511,0.262,1.071,0.4,1.647,0.4c1.996,0,3.621-1.624,3.621-3.623
				c0-1.994-1.625-3.618-3.621-3.618c-1.189,0-2.28,0.579-2.951,1.54c-1.488,0.059-2.679,1.287-2.679,2.787
				C121.953,39.007,123.203,40.256,124.741,40.256z"/>
			
				<path fill="#FB3975" stroke="#E52D64" stroke-width="3.1626" stroke-linecap="round" stroke-linejoin="round" stroke-miterlimit="10" d="
				M142.39,37.729c0.403,0,0.802-0.045,1.2-0.133c0.753,0.696,1.735,1.091,2.764,1.091c1.312,0,2.541-0.642,3.303-1.703
				c1.662,0.069,3.333-0.434,4.681-1.416c0.546,0.221,1.113,0.333,1.687,0.333c2.555,0,4.637-2.081,4.637-4.637
				c0-2.258-1.645-4.165-3.832-4.552c-1.144-2.762-3.841-4.586-6.861-4.586c-3.024,0-5.758,1.874-6.883,4.635
				c-0.234-0.029-0.465-0.046-0.695-0.046c-3.034,0-5.505,2.471-5.505,5.506C136.885,35.259,139.354,37.729,142.39,37.729z"/>
		</g>
		<g>
			<g id="Ellipse_1_31_">
				<g>
					<circle fill="#20DEC2" cx="43.23" cy="69.26" r="23.317"/>
				</g>
			</g>
			<g id="Ellipse_1_29_">
				<g>
					<circle fill="none" stroke="#3BBEA6" stroke-width="4.6635" stroke-miterlimit="10" cx="43.23" cy="69.26" r="23.317"/>
				</g>
			</g>
			<g id="Ellipse_1_27_">
				<g>
					
						<ellipse transform="matrix(0.0865 -0.9963 0.9963 0.0865 -41.6492 82.5592)" fill="#FFFFFF" cx="24.195" cy="63.991" rx="3.915" ry="2.604"/>
				</g>
			</g>
			<g id="Ellipse_1_25_">
				<g>
					<circle fill="#FFFFFF" cx="43.23" cy="65.51" r="5.574"/>
				</g>
			</g>
		</g>
		<polygon fill="#565656" points="108.2,71.085 98.638,62.522 98.637,68.856 85.269,68.856 85.27,62.521 75.707,71.084 
			85.269,79.646 85.269,73.311 98.637,73.311 98.637,79.647 		"/>
	</g>
</g>
<g id="bio_skils">
	<g>
		<path fill="#FFFFFF" d="M338.287,90.696c0,4.711-3.854,8.565-8.566,8.565h-37.869c-4.711,0-8.566-3.854-8.566-8.565V29.286
			c0-4.711,3.854-8.566,8.566-8.566h37.869c4.711,0,8.566,3.854,8.566,8.566V90.696z"/>
		<path fill="none" stroke="#35363A" stroke-width="3.4242" stroke-miterlimit="10" d="M338.287,90.696
			c0,4.711-3.854,8.565-8.566,8.565h-37.869c-4.711,0-8.566-3.854-8.566-8.565V29.286c0-4.711,3.854-8.566,8.566-8.566h37.869
			c4.711,0,8.566,3.854,8.566,8.566V90.696z"/>
	</g>
	
		<line fill="#FFFFFF" stroke="#35363A" stroke-width="5.1363" stroke-linecap="round" stroke-miterlimit="10" x1="298.454" y1="37.577" x2="308.552" y2="37.577"/>
	
		<line fill="#FFFFFF" stroke="#35363A" stroke-width="3.4242" stroke-linecap="round" stroke-miterlimit="10" x1="297.598" y1="49.563" x2="323.975" y2="49.563"/>
	
		<line fill="#FFFFFF" stroke="#35363A" stroke-width="3.4242" stroke-linecap="round" stroke-miterlimit="10" x1="297.598" y1="59.837" x2="323.975" y2="59.837"/>
	
		<line fill="#FFFFFF" stroke="#35363A" stroke-width="3.4242" stroke-linecap="round" stroke-miterlimit="10" x1="297.598" y1="70.111" x2="323.975" y2="70.111"/>
	
		<line fill="#FFFFFF" stroke="#35363A" stroke-width="3.4242" stroke-linecap="round" stroke-miterlimit="10" x1="297.598" y1="80.385" x2="323.975" y2="80.385"/>
	<g>
		<g id="Ellipse_1_39_">
			<g>
				<path fill="#20DEC2" d="M266.046,35.307c-16.052,0-29.068,13.014-29.068,29.066c0,16.057,13.016,29.07,29.068,29.07
					c16.055,0,29.068-13.013,29.068-29.07C295.114,48.321,282.101,35.307,266.046,35.307z"/>
			</g>
		</g>
		<g id="Ellipse_1_37_">
			<g>
				<path fill="none" stroke="#3BBEA6" stroke-width="5.8137" stroke-miterlimit="10" d="M266.046,35.307
					c-16.052,0-29.068,13.014-29.068,29.066c0,16.057,13.016,29.07,29.068,29.07c16.055,0,29.068-13.013,29.068-29.07
					C295.114,48.321,282.101,35.307,266.046,35.307z"/>
			</g>
		</g>
		<g id="Ellipse_1_35_">
			<g>
				
					<ellipse transform="matrix(0.0865 -0.9963 0.9963 0.0865 163.7678 294.2131)" fill="#FFFFFF" cx="242.316" cy="57.805" rx="4.88" ry="3.247"/>
			</g>
		</g>
		<g id="Ellipse_1_33_">
			<g>
				<circle fill="#FFFFFF" cx="266.046" cy="59.699" r="6.949"/>
			</g>
		</g>
	</g>
</g>
<g id="bio_lieu">
	<g>
		<path fill="#FFFFFF" d="M531.213,90.696c0,4.711-3.854,8.565-8.566,8.565h-37.869c-4.711,0-8.566-3.854-8.566-8.565V29.286
			c0-4.711,3.854-8.566,8.566-8.566h37.869c4.711,0,8.566,3.854,8.566,8.566V90.696z"/>
		<path fill="none" stroke="#35363A" stroke-width="3.4242" stroke-miterlimit="10" d="M531.213,90.696
			c0,4.711-3.854,8.565-8.566,8.565h-37.869c-4.711,0-8.566-3.854-8.566-8.565V29.286c0-4.711,3.854-8.566,8.566-8.566h37.869
			c4.711,0,8.566,3.854,8.566,8.566V90.696z"/>
	</g>
	
		<line fill="#FFFFFF" stroke="#35363A" stroke-width="5.1363" stroke-linecap="round" stroke-miterlimit="10" x1="491.38" y1="37.577" x2="501.479" y2="37.577"/>
	
		<line fill="#FFFFFF" stroke="#35363A" stroke-width="3.4242" stroke-linecap="round" stroke-miterlimit="10" x1="490.524" y1="49.563" x2="516.901" y2="49.563"/>
	
		<line fill="#FFFFFF" stroke="#35363A" stroke-width="3.4242" stroke-linecap="round" stroke-miterlimit="10" x1="490.524" y1="59.837" x2="516.901" y2="59.837"/>
	
		<line fill="#FFFFFF" stroke="#35363A" stroke-width="3.4242" stroke-linecap="round" stroke-miterlimit="10" x1="490.524" y1="70.111" x2="516.901" y2="70.111"/>
	
		<line fill="#FFFFFF" stroke="#35363A" stroke-width="3.4242" stroke-linecap="round" stroke-miterlimit="10" x1="490.524" y1="80.385" x2="516.901" y2="80.385"/>
	<g>
		
			<polyline fill="#FB3975" stroke="#E52D64" stroke-width="3.3346" stroke-linecap="round" stroke-linejoin="round" stroke-miterlimit="10" points="
			453.546,79.85 449.433,61.176 439.013,61.176 439.013,61.176 433.107,103.553 495.34,103.553 490.337,68.553 474.586,79.684 
			472.085,68.553 453.546,79.85 		"/>
		
			<path fill="#FB3975" stroke="#E52D64" stroke-width="3.3346" stroke-linecap="round" stroke-linejoin="round" stroke-miterlimit="10" d="
			M442.759,51.783c0.438,0,0.867-0.099,1.26-0.288c0.539,0.276,1.129,0.422,1.737,0.422c2.104,0,3.817-1.713,3.817-3.821
			c0-2.102-1.713-3.815-3.817-3.815c-1.254,0-2.405,0.611-3.111,1.625c-1.568,0.062-2.825,1.356-2.825,2.938
			C439.82,50.466,441.137,51.783,442.759,51.783z"/>
		
			<path fill="#FB3975" stroke="#E52D64" stroke-width="3.3346" stroke-linecap="round" stroke-linejoin="round" stroke-miterlimit="10" d="
			M461.368,49.119c0.425,0,0.846-0.048,1.265-0.141c0.794,0.735,1.83,1.15,2.915,1.15c1.383,0,2.678-0.676,3.482-1.794
			c1.752,0.072,3.514-0.459,4.936-1.493c0.576,0.233,1.174,0.352,1.778,0.352c2.694,0,4.889-2.195,4.889-4.89
			c0-2.38-1.734-4.391-4.04-4.798c-1.207-2.914-4.05-4.836-7.234-4.836c-3.189,0-6.071,1.975-7.257,4.887
			c-0.247-0.032-0.491-0.048-0.733-0.048c-3.198,0-5.804,2.604-5.804,5.805C455.564,46.513,458.167,49.119,461.368,49.119z"/>
	</g>
</g>
<g id="vidéo_skills">
	<g>
		<rect x="625.737" y="27.472" fill="#FFFFFF" width="76.331" height="56.218"/>
		
			<rect x="625.737" y="27.472" fill="none" stroke="#35363A" stroke-width="3.4128" stroke-miterlimit="10" width="76.331" height="56.218"/>
	</g>
	
		<line fill="#FFFFFF" stroke="#35363A" stroke-width="3.6764" stroke-linecap="round" stroke-miterlimit="10" x1="629.365" y1="90.882" x2="636.594" y2="90.882"/>
	
		<line fill="#FFFFFF" stroke="#35363A" stroke-width="1.4315" stroke-linecap="round" stroke-miterlimit="10" x1="641.634" y1="90.882" x2="671.767" y2="90.882"/>
	<path fill="#35363A" d="M665.014,44.399c-6.507,0-11.784,5.276-11.784,11.784c0,6.508,5.276,11.783,11.784,11.783
		c6.508,0,11.784-5.275,11.784-11.783C676.798,49.675,671.522,44.399,665.014,44.399z M661.591,63.098V49.27l9.777,6.914
		L661.591,63.098z"/>
	<g>
		<g id="Ellipse_1_47_">
			<g>
				<circle fill="#20DEC2" cx="710.509" cy="75.98" r="29.068"/>
			</g>
		</g>
		<g id="Ellipse_1_45_">
			<g>
				<circle fill="none" stroke="#3BBEA6" stroke-width="5.8137" stroke-miterlimit="10" cx="710.509" cy="75.98" r="29.068"/>
			</g>
		</g>
		<g id="Ellipse_1_43_">
			<g>
				
					<ellipse transform="matrix(0.0865 -0.9963 0.9963 0.0865 558.2231 747.6122)" fill="#FFFFFF" cx="686.779" cy="69.411" rx="4.88" ry="3.247"/>
			</g>
		</g>
		<g id="Ellipse_1_41_">
			<g>
				<circle fill="#FFFFFF" cx="710.509" cy="71.305" r="6.949"/>
			</g>
		</g>
	</g>
</g>
<g id="vidéo_lieu">
	<g>
		<rect x="818.664" y="27.472" fill="#FFFFFF" width="76.331" height="56.218"/>
		
			<rect x="818.664" y="27.472" fill="none" stroke="#35363A" stroke-width="3.4128" stroke-miterlimit="10" width="76.331" height="56.218"/>
	</g>
	
		<line fill="#FFFFFF" stroke="#35363A" stroke-width="3.6764" stroke-linecap="round" stroke-miterlimit="10" x1="822.292" y1="90.882" x2="829.521" y2="90.882"/>
	
		<line fill="#FFFFFF" stroke="#35363A" stroke-width="1.4315" stroke-linecap="round" stroke-miterlimit="10" x1="834.561" y1="90.882" x2="864.693" y2="90.882"/>
	<path fill="#35363A" d="M857.941,44.399c-6.507,0-11.784,5.276-11.784,11.784c0,6.508,5.276,11.783,11.784,11.783
		c6.508,0,11.784-5.275,11.784-11.783C869.725,49.675,864.449,44.399,857.941,44.399z M854.518,63.098V49.27l9.777,6.914
		L854.518,63.098z"/>
	<g>
		
			<polyline fill="#FB3975" stroke="#E52D64" stroke-width="3.3346" stroke-linecap="round" stroke-linejoin="round" stroke-miterlimit="10" points="
			890.806,80.705 886.693,62.032 876.273,62.032 876.273,62.032 870.368,104.409 932.6,104.409 927.598,69.409 911.847,80.539 
			909.345,69.409 890.806,80.705 		"/>
		
			<path fill="#FB3975" stroke="#E52D64" stroke-width="3.3346" stroke-linecap="round" stroke-linejoin="round" stroke-miterlimit="10" d="
			M880.019,52.639c0.438,0,0.867-0.099,1.26-0.289c0.539,0.277,1.129,0.422,1.737,0.422c2.104,0,3.817-1.713,3.817-3.821
			c0-2.102-1.713-3.815-3.817-3.815c-1.254,0-2.405,0.61-3.111,1.625c-1.568,0.061-2.825,1.356-2.825,2.938
			C877.08,51.322,878.397,52.639,880.019,52.639z"/>
		
			<path fill="#FB3975" stroke="#E52D64" stroke-width="3.3346" stroke-linecap="round" stroke-linejoin="round" stroke-miterlimit="10" d="
			M898.628,49.975c0.425,0,0.846-0.047,1.265-0.14c0.794,0.735,1.83,1.15,2.915,1.15c1.383,0,2.678-0.676,3.482-1.794
			c1.752,0.073,3.514-0.458,4.936-1.493c0.576,0.233,1.174,0.352,1.778,0.352c2.694,0,4.889-2.195,4.889-4.89
			c0-2.38-1.734-4.391-4.04-4.798c-1.207-2.914-4.05-4.836-7.234-4.836c-3.189,0-6.071,1.975-7.257,4.887
			c-0.247-0.032-0.491-0.048-0.733-0.048c-3.198,0-5.804,2.604-5.804,5.804C892.824,47.369,895.427,49.975,898.628,49.975z"/>
	</g>
	<g>
		
			<polyline fill="#FB3975" stroke="#E52D64" stroke-width="3.3346" stroke-linecap="round" stroke-linejoin="round" stroke-miterlimit="10" points="
			890.806,80.705 886.693,62.032 876.273,62.032 876.273,62.032 870.368,104.409 932.6,104.409 927.598,69.409 911.847,80.539 
			909.345,69.409 890.806,80.705 		"/>
		
			<path fill="#FB3975" stroke="#E52D64" stroke-width="3.3346" stroke-linecap="round" stroke-linejoin="round" stroke-miterlimit="10" d="
			M880.019,52.639c0.438,0,0.867-0.099,1.26-0.289c0.539,0.277,1.129,0.422,1.737,0.422c2.104,0,3.817-1.713,3.817-3.821
			c0-2.102-1.713-3.815-3.817-3.815c-1.254,0-2.405,0.61-3.111,1.625c-1.568,0.061-2.825,1.356-2.825,2.938
			C877.08,51.322,878.397,52.639,880.019,52.639z"/>
		
			<path fill="#FB3975" stroke="#E52D64" stroke-width="3.3346" stroke-linecap="round" stroke-linejoin="round" stroke-miterlimit="10" d="
			M898.628,49.975c0.425,0,0.846-0.047,1.265-0.14c0.794,0.735,1.83,1.15,2.915,1.15c1.383,0,2.678-0.676,3.482-1.794
			c1.752,0.073,3.514-0.458,4.936-1.493c0.576,0.233,1.174,0.352,1.778,0.352c2.694,0,4.889-2.195,4.889-4.89
			c0-2.38-1.734-4.391-4.04-4.798c-1.207-2.914-4.05-4.836-7.234-4.836c-3.189,0-6.071,1.975-7.257,4.887
			c-0.247-0.032-0.491-0.048-0.733-0.048c-3.198,0-5.804,2.604-5.804,5.804C892.824,47.369,895.427,49.975,898.628,49.975z"/>
	</g>
</g>
<g id="networks">
	<g>
		<g id="Ellipse_1_55_">
			<g>
				<circle fill="#20DEC2" cx="1022.878" cy="54.588" r="25.7"/>
			</g>
		</g>
		<g id="Ellipse_1_53_">
			<g>
				<circle fill="none" stroke="#3BBEA6" stroke-width="5.1402" stroke-miterlimit="10" cx="1022.878" cy="54.588" r="25.7"/>
			</g>
		</g>
		<g id="Ellipse_1_51_">
			<g>
				
					<ellipse transform="matrix(0.0865 -0.9963 0.9963 0.0865 866.6788 1042.708)" fill="#FFFFFF" cx="1001.898" cy="48.779" rx="4.315" ry="2.871"/>
			</g>
		</g>
		<g id="Ellipse_1_49_">
			<g>
				<circle fill="#FFFFFF" cx="1022.878" cy="50.454" r="6.144"/>
			</g>
		</g>
	</g>
	<g>
		<g id="Ellipse_1_63_">
			<g>
				<circle fill="#20DEC2" cx="1064.779" cy="43.459" r="22.827"/>
			</g>
		</g>
		<g id="Ellipse_1_61_">
			<g>
				<circle fill="none" stroke="#3BBEA6" stroke-width="4.5655" stroke-miterlimit="10" cx="1064.779" cy="43.459" r="22.827"/>
			</g>
		</g>
		<g id="Ellipse_1_59_">
			<g>
				
					<ellipse transform="matrix(0.0598 -0.9982 0.9982 0.0598 954.0253 1085.5282)" fill="#FFFFFF" cx="1053.27" cy="36.315" rx="1.278" ry="4.786"/>
			</g>
		</g>
		<g id="Ellipse_1_57_">
			<g>
				
					<ellipse transform="matrix(0.9905 -0.1378 0.1378 0.9905 5.3523 148.3733)" fill="#FFFFFF" cx="1074.317" cy="35.528" rx="5.457" ry="3.926"/>
			</g>
		</g>
	</g>
	<g>
		<g id="Ellipse_1_71_">
			<g>
				<circle fill="#20DEC2" cx="1101.217" cy="59.045" r="25.7"/>
			</g>
		</g>
		<g id="Ellipse_1_69_">
			<g>
				<circle fill="none" stroke="#3BBEA6" stroke-width="5.1402" stroke-miterlimit="10" cx="1101.217" cy="59.045" r="25.7"/>
			</g>
		</g>
		<g id="Ellipse_1_67_">
			<g>
				
					<ellipse transform="matrix(0.0824 -0.9966 0.9966 0.0824 970.0226 1175.8193)" fill="#FFFFFF" cx="1123.56" cy="61.123" rx="4.315" ry="2.871"/>
			</g>
		</g>
		<g id="Ellipse_1_65_">
			<g>
				<circle fill="#FFFFFF" cx="1104.017" cy="61.123" r="6.144"/>
			</g>
		</g>
	</g>
	<g>
		<g id="Ellipse_1_79_">
			<g>
				<circle fill="#20DEC2" cx="1057.421" cy="78.786" r="27.248"/>
			</g>
		</g>
		<g id="Ellipse_1_77_">
			<g>
				<circle fill="none" stroke="#3BBEA6" stroke-width="5.4496" stroke-miterlimit="10" cx="1057.421" cy="78.786" r="27.248"/>
			</g>
		</g>
		<g id="Ellipse_1_75_">
			<g>
				
					<ellipse transform="matrix(-0.0251 -0.9997 0.9997 -0.0251 996.1632 1120.2041)" fill="#FFFFFF" cx="1044.296" cy="74.371" rx="5.845" ry="5.01"/>
			</g>
		</g>
		<g id="Ellipse_1_73_">
			<g>
				<circle fill="#FFFFFF" cx="1066.952" cy="74.403" r="6.514"/>
			</g>
		</g>
	</g>
</g>
<g id="skills">
	<g>
		<g id="Ellipse_1_87_">
			<g>
				<path fill="#20DEC2" d="M1216.54,32.446c-16.052,0-29.068,13.014-29.068,29.066c0,16.057,13.016,29.07,29.068,29.07
					c16.055,0,29.068-13.013,29.068-29.07C1245.608,45.46,1232.595,32.446,1216.54,32.446z"/>
			</g>
		</g>
		<g id="Ellipse_1_85_">
			<g>
				<path fill="none" stroke="#3BBEA6" stroke-width="5.8137" stroke-miterlimit="10" d="M1216.54,32.446
					c-16.052,0-29.068,13.014-29.068,29.066c0,16.057,13.016,29.07,29.068,29.07c16.055,0,29.068-13.013,29.068-29.07
					C1245.608,45.46,1232.595,32.446,1216.54,32.446z"/>
			</g>
		</g>
		<g id="Ellipse_1_83_">
			<g>
				
					<ellipse transform="matrix(0.0865 -0.9963 0.9963 0.0865 1034.8959 1238.532)" fill="#FFFFFF" cx="1192.81" cy="54.945" rx="4.88" ry="3.247"/>
			</g>
		</g>
		<g id="Ellipse_1_81_">
			<g>
				<circle fill="#FFFFFF" cx="1216.54" cy="56.839" r="6.949"/>
			</g>
		</g>
	</g>
	
		<rect x="1288.42" y="38.953" transform="matrix(0.7071 -0.7071 0.7071 0.7071 331.5553 934.998)" fill="#66676D" width="12" height="56.648"/>
	
		<rect x="1290.687" y="41.226" transform="matrix(0.7069 -0.7073 0.7073 0.7069 329.486 934.2839)" fill="#35363A" width="2.918" height="56.648"/>
	
		<rect x="1295.236" y="36.678" transform="matrix(0.7069 -0.7073 0.7073 0.7069 334.0359 936.168)" fill="#35363A" width="2.918" height="56.648"/>
	<polyline fill="#35363A" points="1266.843,37.024 1261.415,34.271 1264.151,39.665 	"/>
	<polyline fill="#FFFFFF" points="1264.151,39.665 1270.149,51.491 1278.635,43.006 1266.843,37.024 	"/>
	<path fill="#35363A" d="M1282.986,78.168l25.154-25.154c2.642,1.657,6.005,2.088,9.125,0.847c3.002-1.193,5.11-3.665,5.962-6.541
		l-7.545,2.892l-3.933-2.462l-1.837-4.797l1.333-4.323l7.468-2.86c-2.61-1.558-5.885-1.936-8.928-0.727
		c-5.196,2.065-7.735,7.953-5.67,13.148c0.121,0.305,0.259,0.601,0.405,0.889l-25.312,25.312c-3.865-2.208-8.871-1.672-12.171,1.628
		c-3.954,3.954-3.954,10.365,0,14.319c3.954,3.954,10.365,3.954,14.319,0C1284.658,87.039,1285.194,82.034,1282.986,78.168z
		 M1277.234,89.925l-3.483,0.639l-3.38-1.054l-2.503-2.503l-1.055-3.38l0.639-3.482l2.184-2.788l3.229-1.453l3.534,0.214
		l2.794,1.688l0.379,0.379l1.688,2.794l0.214,3.534l-1.452,3.229L1277.234,89.925z"/>
	<path fill="#66676D" d="M1282.73,76.062c-0.391,0.39-1.024,0.39-1.415,0l0,0c-0.39-0.391-0.39-1.024,0-1.414l23.629-23.629
		c0.39-0.39,1.023-0.39,1.414,0l0,0c0.391,0.391,0.391,1.024,0,1.415L1282.73,76.062z"/>
</g>
<g id="staff">
	<g>
		<rect x="1507.433" y="38.59" fill="#66676D" width="13.263" height="62.608"/>
		<rect x="1508.898" y="38.59" fill="#35363A" width="3.225" height="62.608"/>
		<rect x="1516.008" y="38.59" fill="#35363A" width="3.224" height="62.608"/>
		<polyline fill="#35363A" points="1516.154,24.699 1514.065,18.307 1511.987,24.66 		"/>
		<polyline fill="#FFFFFF" points="1511.987,24.66 1507.433,38.59 1520.695,38.59 1516.154,24.699 		"/>
	</g>
	<g>
		<path fill="#35363A" d="M1431.115,78.978V39.661c3.36-0.769,6.324-3.061,7.792-6.468c1.414-3.279,1.129-6.858-0.452-9.772
			l-3.636,8.156l-4.998,1.149l-5.185-2.312l-2.336-4.421l3.601-8.071c-3.257,0.822-6.112,3.087-7.545,6.408
			c-2.447,5.676,0.169,12.261,5.844,14.707c0.333,0.145,0.672,0.268,1.012,0.378v39.562c-4.746,1.297-8.239,5.627-8.239,10.785
			c0,6.18,5.01,11.19,11.19,11.19c6.181,0,11.191-5.011,11.191-11.19C1439.354,84.604,1435.862,80.274,1431.115,78.978z
			 M1435.808,92.661l-2.223,3.221l-3.465,1.818h-3.913l-3.466-1.818l-2.223-3.221l-0.471-3.884l1.388-3.659l2.929-2.595l3.503-0.864
			h0.593l3.503,0.864l2.929,2.595l1.389,3.658L1435.808,92.661z"/>
		<path fill="#66676D" d="M1429.27,77.532c0,0.61-0.496,1.105-1.106,1.105l0,0c-0.61,0-1.104-0.495-1.104-1.105V40.6
			c0-0.61,0.495-1.105,1.105-1.105l0,0c0.61,0,1.106,0.495,1.106,1.105V77.532z"/>
	</g>
	<g>
		<g id="Ellipse_1_111_">
			<g>
				<circle fill="#20DEC2" cx="1489.615" cy="64.936" r="24.802"/>
			</g>
		</g>
		<g id="Ellipse_1_109_">
			<g>
				<circle fill="none" stroke="#3BBEA6" stroke-width="4.9605" stroke-miterlimit="10" cx="1489.615" cy="64.936" r="24.802"/>
			</g>
		</g>
		<g id="Ellipse_1_107_">
			<g>
				
					<ellipse transform="matrix(-0.0251 -0.9997 0.9997 -0.0251 1453.8602 1539.6482)" fill="#FFFFFF" cx="1477.668" cy="60.917" rx="5.321" ry="4.56"/>
			</g>
		</g>
		<g id="Ellipse_1_105_">
			<g>
				<circle fill="#FFFFFF" cx="1498.291" cy="60.946" r="5.93"/>
			</g>
		</g>
	</g>
	<g>
		<g id="Ellipse_1_95_">
			<g>
				<path fill="#20DEC2" d="M1399.972,36.153c-13.843,0-25.067,11.224-25.067,25.066c0,13.848,11.225,25.069,25.067,25.069
					c13.845,0,25.068-11.222,25.068-25.069C1425.04,47.377,1413.817,36.153,1399.972,36.153z"/>
			</g>
		</g>
		<g id="Ellipse_1_93_">
			<g>
				<path fill="none" stroke="#3BBEA6" stroke-width="5.0136" stroke-miterlimit="10" d="M1399.972,36.153
					c-13.843,0-25.067,11.224-25.067,25.066c0,13.848,11.225,25.069,25.067,25.069c13.845,0,25.068-11.222,25.068-25.069
					C1425.04,47.377,1413.817,36.153,1399.972,36.153z"/>
			</g>
		</g>
		<g id="Ellipse_1_91_">
			<g>
				
					<ellipse transform="matrix(0.0865 -0.9963 0.9963 0.0865 1204.8306 1425.0873)" fill="#FFFFFF" cx="1379.508" cy="55.556" rx="4.208" ry="2.8"/>
			</g>
		</g>
		<g id="Ellipse_1_89_">
			<g>
				<circle fill="#FFFFFF" cx="1399.972" cy="57.19" r="5.993"/>
			</g>
		</g>
	</g>
</g>
</svg>
